<svg width="284" height="65" viewBox="0 0 284 65" xmlns="http://www.w3.org/2000/svg"><title>simplelegal</title><g fill="none"><path d="M41.1.3c1.1.2 2.2.5 3.2.7C49 2.1 53 4.4 56.1 8.1c.4.5.7 1 1 1.4.1.1.1.3.3.7-.6-.6-1-.9-1.3-1.2-5.9-4.9-12.6-5.8-19.7-3.4-5.6 1.8-10.2 5.2-14.5 9-.3.2-.5.6-.8.7-.5.1-1.2.2-1.7 0-.4-.2-.7-.9-.7-1.3.1-.8.3-1.7.8-2.3.9-1.2 1.8-2.5 2.9-3.4 4.3-3.7 9-6.7 14.8-7.6.3-.1.7-.2 1-.3 1-.1 1.9-.1 2.9-.1z" fill="#63B7D2"/><path d="M242.8 23.9c0-.7.1-1.3.1-2h4.2v21c0 4-1.3 7.2-5.2 8.9-3.8 1.7-8.8.8-11.7-2.1.9-.9 1.9-1.7 2.9-2.6 2.2 1.8 4.8 2.6 7.4 1 2.7-1.6 2.2-4.5 2.2-7.4-1.7 1.8-3.6 2.5-5.8 2.4-3.7-.1-6.3-2.2-7-5.9-.6-3.2-.6-6.4 0-9.7.5-2.7 1.8-4.8 4.5-5.6 2.9-.9 5.6-.7 7.9 1.6.1.1.2.2.5.4zm-9.1 8.3h.1c.1.9.1 1.9.3 2.8.1.6.3 1.2.5 1.7.6 1.6 1.7 2.3 3.8 2.2 1.9 0 3.1-.7 3.6-2.2 1-3 1-6.1 0-9.1-.5-1.6-1.7-2.2-3.6-2.2-2 0-3.3.6-3.8 2.2-.4 1.6-.6 3.1-.9 4.6zm35.1 11.3h-4.1c0-.5-.1-1-.1-1.5-.1 0-.3 0-.3.1-2.5 2.1-5.4 2.1-8.3 1.4-3.2-.8-4.9-3.5-4.6-6.9.3-3.1 2.5-5.3 6-5.5 2-.2 4-.1 5.9-.1h1.3c0-2 .2-4-1.8-5-2.3-1.2-5.5-.6-7.7 1.5-.9-.9-1.9-1.7-2.8-2.6 1.6-2.1 3.8-3.1 6.2-3.1 2 0 4.1.1 6.1.6 2.7.7 4.3 2.7 4.4 5.5.2 5.2.1 10.4.1 15.5-.2-.1-.2 0-.3.1zm-4.2-9.5H259c-.7 0-1.3.2-1.9.5-1.1.5-1.5 1.5-1.5 2.7 0 1.2.5 2 1.6 2.5 4 1.8 7.4-.4 7.4-4.6V34zm-39.4 6.3c-2.7 3.2-7.4 4.4-11.8 2.9-4.2-1.4-5.7-4.7-6-8.7-.1-1.9 0-4 .4-5.9 1.1-4.8 4.6-7.4 9.3-7.2 4.6.3 7.9 3.4 8.5 8.3.2 1.3.2 2.7.2 4.2h-14.2c.1 2.4.6 4.4 2.8 5.4 2.9 1.4 5.6.8 8.1-1.6.9 1 1.8 1.8 2.7 2.6zm-3.8-9.5c-.1-2.1-.5-3.9-2.4-5-1.7-1-3.5-.9-5.2.2-1.6 1.1-2.1 2.8-2.1 4.8h9.7z" fill="#144664"/><path d="M53.3 54c.8-1.4 1.6-2.6 2.1-3.9 2.8-6.1 2.5-12.1-1-17.8-2.3-3.8-5.4-6.8-9.1-9.2-2.5-1.6-5.1-2.9-7.7-4.4-.8-.4-1.6-.8-1.4-1.9.2-1.2 1.2-1.6 2.2-1.5 1.2 0 2.5.1 3.6.5 7.8 2.9 14 7.8 17.8 15.2 2.7 5.2 2.7 10.8.1 16.2-1.5 2.9-3.6 5.1-6.6 6.8z" fill="#63B7D2"/><path d="M17.7 58.2c2 .3 4 .7 6 .8 5.8.3 10.6-1.9 14.4-6.2 3.9-4.4 5.9-9.6 7-15.2.4-1.9.7-3.7 1-5.6.1-.8.3-1.6 1.3-1.8 1-.2 1.8.4 2 1.2.4 1.3.9 2.8.8 4.1-.4 8.1-3 15.4-8.8 21.2-5.3 5.4-11.9 7-19.2 4.4-1.7-.6-3.2-1.8-4.8-2.7.2-.1.2-.1.3-.2zm42.8-39c-.3-.3-.4-.5-.5-.6-5.9-7.5-14-9.7-22.9-6.2-3.9 1.5-7.3 3.7-10.4 6.6-1.6 1.5-3.2 3.1-4.8 4.5-.5.4-1.5.8-1.8.6-.5-.3-.8-1.2-1-1.9-.1-.4.1-.9.3-1.4.2-.6.4-1.2.8-1.7 6.4-8.2 14.3-13.7 25.1-13.2 7.5.3 14 6.1 15.2 13.3z" fill="#63B7D2"/><path d="M29.4 1.3c-.3.1-.7.3-1 .4C19.9 4.9 15.2 12.6 16 21.6c.4 5.5 2.4 10.5 4.8 15.4.4.8.9 1.6 1.2 2.4.2.5.2 1.4-.1 1.7-.4.4-1.4.7-1.9.5-1.1-.6-2.2-1.4-3.1-2.3-2.2-2.5-3.5-5.5-4.4-8.6C11 26 10 21.2 10.9 16.1c1.3-7.7 7.1-13.7 14.3-15C26.1 1 27 1 27.9 1c.5 0 1 0 1.5.1v.2z" fill="#63B7D2"/><path d="M2.7 25.5c.6 2.5 1 5.3 1.9 7.8 2.5 6.5 7.8 9.7 14.3 11.3 5.4 1.3 10.9.7 16.3-.1.5-.1 1.1-.3 1.6-.2.6.1 1.5.3 1.7.7.3.5.2 1.5-.2 1.9-.5.7-1.4 1.4-2.2 1.7-2.2.7-4.4 1.5-6.7 1.8-5.4.6-10.8.3-15.9-1.8-6.6-2.8-10.8-7.6-12-14.7-.5-3-.1-5.9 1.2-8.4z" fill="#63B7D2"/><path d="M185.5 43.5V13.1h4.5v26.3h14.7v4.2c-6.4-.1-12.8-.1-19.2-.1z" fill="#144664"/><path d="M25.4 63.5c9.3.9 16-3 20.7-10.7 2.7-4.3 4.2-9.1 5.2-14.1.1-.3 0-.6.2-.8.4-.4.9-1 1.5-1.1.4-.1 1.2.4 1.3.8.4 1.4.8 2.8.7 4.1-.5 5.5-2.5 10.6-5.7 15-3.5 4.7-8.4 7.1-14.1 7.9-2.9.4-5.8.1-8.6-.7-.5 0-.9-.2-1.2-.4zM61.1 48c.6-2.1 1.2-4 1.6-5.9.9-5.1-.5-9.8-3.3-14.1-3.5-5.3-8.5-9-13.9-12.2-.3-.2-.6-.3-.9-.6-.9-.8-.6-2.4.6-2.6 1-.2 2.1-.1 3 .1 1.1.3 2.2.8 3.3 1.3 3.6 2 6.8 4.6 9.5 7.8 5.6 6.7 6.2 17.3 1.3 24.6-.4.6-.8 1-1.2 1.6z" fill="#63B7D2"/><path d="M118.7 43.5h-1.9v-1.3c0-4 .1-8 0-12 0-1.4-.3-3-.8-4.3-1.3-3.1-4.9-3.8-7.5-1.5-1.7 1.5-2.3 3.5-2.3 5.8v13.3h-1.8V22.1h1.8v2.8c1.8-2.3 3.8-3.7 6.5-3.4 2.7.3 4.5 1.9 5.4 4.7.3-.6.5-1 .7-1.3 1.4-2.3 3.5-3.7 6.3-3.5 2.7.2 4.6 1.7 5.6 4.2.5 1.3.9 2.8.9 4.3.1 4.4 0 8.7 0 13.1 0 .2 0 .3-.1.5h-1.8v-1.4c0-4.5-.1-9.1-.1-13.6 0-.4-.1-.9-.2-1.3-.6-2.1-1.7-3.6-3.9-4-2.2-.4-3.9.7-5.2 2.5-1 1.4-1.4 3.1-1.4 4.8v11.8c-.1.4-.1.8-.2 1.2z" fill="#144664"/><path d="M.2 34.5C2.8 46.1 11.7 50 19.5 51.1c4 .6 8 .5 12.1.1.2 0 .4 0 .6-.1.8-.1 1.6.2 1.8 1 .1.6-.2 1.5-.6 1.8-1 .7-2.2 1.3-3.4 1.7-3.2.9-6.6.8-9.9.5-9.9-.8-17.2-6.9-19.5-16.3-.5-1.7-.8-3.5-.4-5.3zM20 1.4C17.3 3 14.9 5 13.1 7.5 9.9 12 9 17.1 9.5 22.5c.5 5 2 9.7 4.1 14.2.4.9.6 1.7-.2 2.5-.9.7-1.7.2-2.4-.3-.6-.5-1.3-1-1.6-1.7-4-6.6-6.1-13.8-3.9-21.4C7.6 8.6 12.4 3.7 19.7 1.4h.3z" fill="#63B7D2"/><path d="M283.1 39.8v3.9c-1.7-.1-3.3-.1-4.8-.4-2.2-.5-3.3-2.3-3.7-4.5-.1-.5-.1-1.1-.1-1.7V13h4.4v24.8c.2 1.3.8 1.9 2.1 1.9.7.1 1.4.1 2.1.1zm-144.8-15c1.5-1.7 3.2-2.9 5.4-3.2 2.9-.4 5.1.6 6.8 2.9 3.4 4.4 3.3 12.6-.2 17-2.7 3.3-7.4 3.6-10.4.5-.5-.5-1-1.1-1.5-1.8v11.9h-1.8V22.2h1.8c-.1.8-.1 1.7-.1 2.6zm12.8 8c-.1-2.6-.5-5.1-2.1-7.3-1.5-2-3.6-2.8-5.8-2.1-2.3.7-4.7 3.8-4.7 6.2v4.8c-.1 2.3.8 4.2 2.1 5.9 2.7 3.3 6.8 3 8.9-.7 1.1-2.1 1.5-4.4 1.6-6.8zm-58.6-15c-.5.4-.9.7-1.4 1.1-1.7-2.5-3.8-4.2-6.8-4.4-1.7-.1-3.5.1-5.1.6-2 .6-3.1 2.1-3.3 4.2-.2 2.1.4 3.8 2.2 4.9 1.6 1 3.4 1.7 5.1 2.6 2 1 4.1 1.9 6 3 5.5 3.2 4.1 10.9-1 13.3-5.8 2.7-12.2.5-14.8-5.4.4-.3.9-.6 1.4-1 .2.4.3.7.5 1 2.2 4.6 8 6.3 12.4 3.7 3-1.8 4.7-7.1.7-9.8-1.9-1.3-4.2-2.2-6.3-3.3-1.7-.8-3.5-1.5-5.1-2.5-2.4-1.5-3.5-3.8-3.1-6.7.4-2.9 2.1-4.7 4.8-5.7 4.8-1.8 10.3-.4 13.1 3.2.2.4.4.8.7 1.2zm88 15.4H165c0 3 .7 5.6 2.8 7.6 1.7 1.6 3.8 2.1 5.9 1.2 1.4-.6 2.7-1.7 4-2.6 0-.1-.1-.3-.1-.4.5.3 1 .7 1.5 1-2.7 4.8-9.8 5.5-13.4 1.3-2.4-2.8-3.1-6.2-2.7-9.8.2-1.9.7-3.9 1.6-5.7 1.4-2.9 3.8-4.4 7.1-4.4s5.7 1.5 7.2 4.3c1.3 2.4 1.8 4.8 1.6 7.5zm-2.1-1.6c0-4.9-3-8.5-6.8-8.4-3.6.2-6.8 4.2-6.4 8.4h13.2zm-19.5 11.9h-1.7V13.4h1.7v30.1zm-60.2 0H97V22.1h1.7v21.4zm-.8-30.6c.9.1 1.5.6 1.5 1.5s-.6 1.5-1.5 1.5c-.9.1-1.6-.7-1.5-1.6 0-.9.6-1.4 1.5-1.4z" fill="#144664"/></g></svg>